<?xml version="1.0" ?><svg width="100px" height="100px" viewBox="0 0 100 100" style="enable-background:new 0 0 100 100;" version="1.1" xml:space="preserve" xmlns="http://www.w3.org/2000/svg" xmlns:xlink="http://www.w3.org/1999/xlink"><style type="text/css">
	.st0{display:none;}
	.st1{display:inline;fill:none;}
</style><g class="st0" id="bounding_squares"><rect class="st1" height="100" id="XMLID_37_" width="100"/></g><g id="icons"><path d="M52,67.9510498v-3.8533936c0-4.664856-1.1184082-9.1561279-3.2196655-13.1748657l8.883728-8.883728   c0.375-0.375,0.5859375-0.8837891,0.5859375-1.4140625V25c0-1.1044922-0.8955078-2-2-2   c-0.4173584,0-0.8043823,0.12854-1.125,0.347229V21.875c0-1.1044922-0.8955078-2-2-2s-2,0.8955078-2,2v2.3671875   c0,6.4921265-2.048645,12.668396-5.8383789,17.793335C45.5858154,41.0969849,45.75,40.0988159,45.75,39.0625   c0-5.4101563-4.4023438-9.8125-9.8125-9.8125s-9.8125,4.4023438-9.8125,9.8125s4.4023438,9.8125,9.8125,9.8125   c1.9769287,0,3.815979-0.5927124,5.3581543-1.6027222C45.6200562,51.8383789,48,57.782959,48,64.0976563v17.6884766   c0,5.1660156-2.0117188,10.0224609-5.6640625,13.6748047c-0.78125,0.78125-0.78125,2.046875,0,2.828125   C42.7265625,98.6796875,43.2382813,98.875,43.75,98.875s1.0234375-0.1953125,1.4140625-0.5859375   C49.5722656,93.8808594,52,88.0205078,52,81.7861328V74.246582c3.4888306,4.9926758,5.375,10.9176636,5.375,17.1362305V96.875   c0,1.1044922,0.8955078,2,2,2s2-0.8955078,2-2v-5.4921875C61.375,82.5830688,58.0471802,74.2998047,52,67.9510498z    M54.25,31.9196777v7.8771973l-7.633728,7.633728c-0.0914307-0.1262207-0.1811523-0.2533569-0.2747803-0.3782959   C50.2728271,42.7155151,52.9621582,37.5263062,54.25,31.9196777z M35.9375,44.875c-3.2050781,0-5.8125-2.6074219-5.8125-5.8125   s2.6074219-5.8125,5.8125-5.8125s5.8125,2.6074219,5.8125,5.8125S39.1425781,44.875,35.9375,44.875z"/><path d="M48.4375,11.375C50.4023438,11.375,52,9.7773438,52,7.8125S50.4023438,4.25,48.4375,4.25S44.875,5.8476563,44.875,7.8125   S46.4726563,11.375,48.4375,11.375z M48.4375,7.375c0.2412109,0,0.4375,0.1962891,0.4375,0.4375S48.6787109,8.25,48.4375,8.25   S48,8.0537109,48,7.8125S48.1962891,7.375,48.4375,7.375z"/></g></svg>